<svg width="1843" height="583" viewBox="0 0 1843 583" fill="none" xmlns="http://www.w3.org/2000/svg">
<path d="M3.48 355.955C2.9 356.245 2.175 355.665 1.305 354.215C0.435 352.765 0.29 351.75 0.87 351.17C14.5 343.05 25.085 330.87 32.625 314.63C40.165 298.39 46.11 278.38 50.46 254.6L89.175 35.36C91.495 22.89 90.915 14.77 87.435 11C84.245 7.22999 75.835 5.34498 62.205 5.34498C61.625 5.34498 61.335 4.47499 61.335 2.73499C61.335 0.994997 61.625 0.125 62.205 0.125C68.005 0.125 74.675 0.414996 82.215 0.994989C89.755 1.28499 97.73 1.42998 106.14 1.42998C115.71 1.42998 124.12 1.28499 131.37 0.994989C138.91 0.414996 145.435 0.125 150.945 0.125C151.815 0.125 152.25 0.994997 152.25 2.73499C152.25 4.47499 151.815 5.34498 150.945 5.34498C141.955 5.34498 135.14 6.21498 130.5 7.95498C125.86 9.69499 122.38 12.74 120.06 17.09C117.74 21.44 115.855 27.82 114.405 36.23L77.865 242.855C73.805 265.475 68.73 283.745 62.64 297.665C56.84 311.875 49.155 323.33 39.585 332.03C30.305 341.02 18.27 348.995 3.48 355.955ZM174.241 278.09C160.321 278.09 148.866 274.03 139.876 265.91C130.886 257.79 124.796 246.915 121.606 233.285C118.416 219.655 118.416 204.575 121.606 188.045C124.796 170.935 130.886 155.71 139.876 142.37C148.866 128.74 159.741 118.01 172.501 110.18C185.261 102.35 198.746 98.435 212.956 98.435C228.036 98.435 240.071 102.64 249.061 111.05C258.341 119.17 264.431 130.045 267.331 143.675C270.521 157.015 270.376 171.805 266.896 188.045C263.416 206.315 256.746 222.265 246.886 235.895C237.316 249.525 226.006 259.965 212.956 267.215C200.196 274.465 187.291 278.09 174.241 278.09ZM189.466 267.215C201.356 267.215 212.231 261.995 222.091 251.555C232.241 240.825 239.056 226.035 242.536 207.185C244.566 196.455 245.291 185.435 244.711 174.125C244.131 162.525 242.101 151.795 238.621 141.935C235.141 132.075 230.211 124.1 223.831 118.01C217.451 111.92 209.621 108.875 200.341 108.875C188.161 108.875 176.996 114.24 166.846 124.97C156.696 135.7 149.736 150.49 145.966 169.34C143.646 180.65 142.921 191.96 143.791 203.27C144.661 214.58 146.836 225.165 150.316 235.025C154.086 244.595 159.161 252.425 165.541 258.515C172.211 264.315 180.186 267.215 189.466 267.215ZM250.992 394.235C245.772 394.235 241.422 392.785 237.942 389.885C234.462 387.275 233.012 382.635 233.592 375.965C235.622 368.425 241.422 364.655 250.992 364.655C257.082 364.655 263.027 364.51 268.827 364.22C274.917 363.93 280.717 362.915 286.227 361.175C292.027 359.725 297.537 357.26 302.757 353.78C309.137 349.43 316.532 341.89 324.942 331.16C333.352 320.72 342.197 308.54 351.477 294.62C360.757 280.99 369.602 266.925 378.012 252.425C386.422 237.925 393.527 224.295 399.327 211.535C405.417 198.775 409.477 188.335 411.507 180.215C413.537 171.805 414.262 164.12 413.682 157.16C413.102 150.2 411.942 144.11 410.202 138.89C408.462 133.38 406.867 128.595 405.417 124.535C403.967 120.185 403.242 116.705 403.242 114.095C403.242 109.745 404.692 106.265 407.592 103.655C410.492 101.045 414.262 99.74 418.902 99.74C424.992 99.74 429.197 101.915 431.517 106.265C434.127 110.615 435.432 116.415 435.432 123.665C435.432 134.105 433.112 146.72 428.472 161.51C423.832 176.01 417.452 191.815 409.332 208.925C401.502 226.035 392.367 243.29 381.927 260.69C371.777 277.8 360.902 294.33 349.302 310.28C337.992 326.52 326.392 340.875 314.502 353.345C302.612 365.815 291.157 375.675 280.137 382.925C269.407 390.465 259.692 394.235 250.992 394.235ZM337.992 321.155C339.732 257.065 336.107 207.475 327.117 172.385C318.417 137.005 305.657 119.315 288.837 119.315C285.067 119.315 281.152 120.475 277.092 122.795C273.322 125.115 269.987 129.32 267.087 135.41C266.507 136.57 265.347 137.005 263.607 136.715C262.157 136.135 261.577 135.265 261.867 134.105C267.377 123.085 273.467 114.675 280.137 108.875C286.807 103.075 294.202 100.175 302.322 100.175C312.472 100.175 321.462 105.105 329.292 114.965C337.122 124.825 343.502 138.455 348.432 155.855C353.362 172.965 356.842 192.83 358.872 215.45C360.902 237.78 361.192 261.705 359.742 287.225L337.992 321.155ZM497.358 277.22C481.988 277.22 469.808 273.16 460.818 265.04C452.118 256.92 446.318 246.335 443.418 233.285C440.808 220.235 440.953 206.315 443.853 191.525C445.593 180.795 449.363 169.92 455.163 158.9C461.253 147.59 468.793 137.44 477.783 128.45C486.773 119.46 496.778 112.21 507.798 106.7C518.818 101.19 530.563 98.435 543.033 98.435C553.763 98.435 561.593 100.61 566.523 104.96C571.743 109.02 573.773 114.675 572.613 121.925C571.163 128.885 567.103 135.555 560.433 141.935C553.763 148.315 545.208 154.115 534.768 159.335C524.328 164.265 512.583 168.615 499.533 172.385C486.773 176.155 473.433 178.765 459.513 180.215L460.383 174.56C482.713 171.37 501.418 166.295 516.498 159.335C531.868 152.085 540.858 142.66 543.468 131.06C545.498 123.23 544.193 117.865 539.553 114.965C534.913 111.775 529.693 110.18 523.893 110.18C514.033 110.18 505.478 113.225 498.228 119.315C490.978 125.405 485.033 133.525 480.393 143.675C475.753 153.825 472.418 164.99 470.388 177.17C467.198 193.41 466.763 207.91 469.083 220.67C471.693 233.43 476.768 243.58 484.308 251.12C491.848 258.66 501.708 262.43 513.888 262.43C520.848 262.43 528.098 261.415 535.638 259.385C543.178 257.355 550.573 253.585 557.823 248.075C558.693 247.495 559.563 247.785 560.433 248.945C561.593 250.105 561.738 251.12 560.868 251.99C549.848 260.98 539.118 267.505 528.678 271.565C518.238 275.335 507.798 277.22 497.358 277.22Z" fill="#F9F9F9"/>
<path d="M1082.93 582.38C1064.96 582.38 1049.41 579.516 1036.27 573.789C1023.13 567.949 1012.79 559.863 1005.27 549.531C997.857 539.086 993.646 527.014 992.635 513.312H1023.97C1024.87 522.746 1028.07 530.551 1033.57 536.728C1039.19 542.905 1046.32 547.509 1054.96 550.542C1063.61 553.574 1072.93 555.09 1082.93 555.09C1094.5 555.09 1104.88 553.181 1114.09 549.362C1123.41 545.544 1130.77 540.209 1136.16 533.359C1141.55 526.508 1144.25 518.479 1144.25 509.27C1144.25 500.959 1141.89 494.221 1137.17 489.055C1132.45 483.889 1126.28 479.677 1118.64 476.42C1111.12 473.164 1102.92 470.3 1094.05 467.829L1063.39 459.069C1043.73 453.454 1028.18 445.424 1016.72 434.98C1005.38 424.423 999.71 410.666 999.71 393.708C999.71 379.67 1003.47 367.429 1011 356.984C1018.63 346.428 1028.91 338.229 1041.82 332.39C1054.85 326.55 1069.34 323.63 1085.29 323.63C1101.46 323.63 1115.83 326.55 1128.41 332.39C1140.99 338.117 1150.98 345.979 1158.4 355.974C1165.81 365.856 1169.74 377.087 1170.19 389.665H1140.54C1139.08 377.312 1133.13 367.709 1122.68 360.859C1112.35 354.008 1099.55 350.583 1084.28 350.583C1073.27 350.583 1063.61 352.38 1055.3 355.974C1046.99 359.567 1040.53 364.509 1035.93 370.798C1031.32 377.087 1029.02 384.274 1029.02 392.36C1029.02 401.232 1031.77 408.42 1037.28 413.923C1042.78 419.313 1049.29 423.525 1056.82 426.557C1064.45 429.589 1071.36 432.004 1077.54 433.801L1102.81 440.876C1109.32 442.673 1116.56 445.087 1124.54 448.12C1132.62 451.152 1140.37 455.251 1147.78 460.417C1155.31 465.583 1161.49 472.209 1166.31 480.295C1171.14 488.269 1173.56 498.151 1173.56 509.943C1173.56 523.42 1170.02 535.661 1162.95 546.667C1155.87 557.561 1145.59 566.264 1132.12 572.778C1118.64 579.179 1102.24 582.38 1082.93 582.38ZM1267.83 389.665V414.26H1170.46V389.665H1267.83ZM1198.76 344.855H1227.4V524.094C1227.4 533.864 1229.42 541.052 1233.46 545.656C1237.5 550.148 1243.91 552.395 1252.67 552.395C1254.57 552.395 1256.54 552.282 1258.56 552.058C1260.7 551.833 1263 551.496 1265.47 551.047L1271.53 576.989C1268.84 578 1265.52 578.786 1261.59 579.348C1257.78 580.021 1253.9 580.358 1249.97 580.358C1234.81 580.358 1222.46 575.866 1212.91 566.882C1203.48 557.897 1198.76 546.218 1198.76 531.843V344.855ZM1396.8 501.184V389.665H1425.43V578H1396.8V545.993H1394.78C1390.28 555.539 1383.38 563.681 1374.06 570.419C1364.85 577.158 1353.11 580.471 1338.85 580.358C1327.06 580.358 1316.61 577.832 1307.51 572.778C1298.42 567.612 1291.23 559.75 1285.95 549.194C1280.79 538.637 1278.2 525.329 1278.2 509.27V389.665H1306.84V507.585C1306.84 521.174 1310.72 532.067 1318.46 540.266C1326.33 548.464 1336.26 552.507 1348.28 552.395C1355.47 552.395 1362.77 550.598 1370.18 547.004C1377.71 543.298 1383.99 537.683 1389.05 530.158C1394.21 522.521 1396.8 512.863 1396.8 501.184ZM1516 582.043C1500.27 582.043 1486.41 578.056 1474.39 570.083C1462.37 562.109 1452.99 550.822 1446.26 536.223C1439.52 521.511 1436.15 504.216 1436.15 484.338C1436.15 464.572 1439.52 447.446 1446.26 432.958C1453.11 418.359 1462.54 407.128 1474.56 399.267C1486.57 391.293 1500.5 387.307 1516.33 387.307C1528.69 387.307 1538.4 389.328 1545.48 393.371C1552.66 397.414 1558.17 402.019 1561.99 407.185C1565.8 412.238 1568.78 416.394 1570.91 419.65H1573.27V326.999H1601.91V578H1574.28V549.025H1570.91C1568.78 552.395 1565.75 556.718 1561.82 561.997C1557.89 567.163 1552.27 571.823 1544.97 575.979C1537.78 580.021 1528.13 582.043 1516 582.043ZM1519.7 556.101C1531.38 556.101 1541.21 553.068 1549.18 547.004C1557.16 540.827 1563.22 532.348 1567.38 521.567C1571.53 510.673 1573.61 498.151 1573.61 484.001C1573.61 469.851 1571.59 457.497 1567.55 446.94C1563.5 436.271 1557.44 428.017 1549.35 422.177C1541.38 416.225 1531.5 413.249 1519.7 413.249C1507.57 413.249 1497.47 416.394 1489.38 422.683C1481.3 428.972 1475.23 437.451 1471.19 448.12C1467.14 458.789 1465.12 470.749 1465.12 484.001C1465.12 497.365 1467.14 509.494 1471.19 520.388C1475.34 531.281 1481.46 539.985 1489.55 546.499C1497.64 552.9 1507.69 556.101 1519.7 556.101ZM1621.72 578V389.665H1650.36V578H1621.72ZM1636.21 358.332C1630.59 358.332 1625.76 356.423 1621.72 352.604C1617.68 348.786 1615.66 344.182 1615.66 338.791C1615.66 333.4 1617.68 328.796 1621.72 324.978C1625.76 321.159 1630.59 319.25 1636.21 319.25C1641.82 319.25 1646.65 321.159 1650.7 324.978C1654.74 328.796 1656.76 333.4 1656.76 338.791C1656.76 344.182 1654.74 348.786 1650.7 352.604C1646.65 356.423 1641.82 358.332 1636.21 358.332ZM1746.31 582.043C1729.35 582.043 1714.47 578 1701.67 569.914C1688.87 561.828 1678.87 550.485 1671.69 535.886C1664.61 521.286 1661.07 504.328 1661.07 485.012C1661.07 465.358 1664.61 448.232 1671.69 433.632C1678.87 418.92 1688.87 407.521 1701.67 399.436C1714.47 391.35 1729.35 387.307 1746.31 387.307C1763.38 387.307 1778.32 391.35 1791.12 399.436C1803.92 407.521 1813.92 418.92 1821.11 433.632C1828.29 448.232 1831.89 465.358 1831.89 485.012C1831.89 504.328 1828.29 521.286 1821.11 535.886C1813.92 550.485 1803.92 561.828 1791.12 569.914C1778.32 578 1763.38 582.043 1746.31 582.043ZM1746.31 556.101C1759.34 556.101 1770.01 552.788 1778.32 546.162C1786.63 539.536 1792.81 530.832 1796.85 520.051C1800.89 509.157 1802.91 497.478 1802.91 485.012C1802.91 472.321 1800.89 460.529 1796.85 449.636C1792.81 438.742 1786.63 429.982 1778.32 423.356C1770.01 416.618 1759.34 413.249 1746.31 413.249C1733.51 413.249 1722.95 416.618 1714.64 423.356C1706.33 429.982 1700.15 438.742 1696.11 449.636C1692.07 460.529 1690.05 472.321 1690.05 485.012C1690.05 497.478 1692.07 509.157 1696.11 520.051C1700.15 530.832 1706.33 539.536 1714.64 546.162C1722.95 552.788 1733.51 556.101 1746.31 556.101Z" fill="#F9F9F9"/>
</svg>
