<svg width="247" height="170" viewBox="0 0 247 170" fill="none" xmlns="http://www.w3.org/2000/svg">
<path d="M1.49633 152.966C1.24699 153.091 0.935328 152.841 0.561328 152.218C0.187328 151.595 0.124995 151.158 0.374328 150.909C6.23366 147.418 10.784 142.182 14.0253 135.201C17.2667 128.22 19.8223 119.618 21.6923 109.395L38.3353 15.147C39.3327 9.78633 39.0833 6.29566 37.5873 4.675C36.216 3.05433 32.6007 2.24399 26.7413 2.24399C26.492 2.24399 26.3673 1.86999 26.3673 1.122C26.3673 0.373999 26.492 0 26.7413 0C29.2347 0 32.102 0.124665 35.3433 0.373995C38.5847 0.49866 42.013 0.560993 45.6283 0.560993C49.7423 0.560993 53.3577 0.49866 56.4743 0.373995C59.7157 0.124665 62.5207 0 64.8893 0C65.2633 0 65.4503 0.373999 65.4503 1.122C65.4503 1.86999 65.2633 2.24399 64.8893 2.24399C61.0247 2.24399 58.095 2.61799 56.1003 3.36599C54.1057 4.114 52.6097 5.423 51.6123 7.293C50.615 9.16299 49.8047 11.9057 49.1813 15.521L33.4733 104.346C31.728 114.07 29.5463 121.924 26.9283 127.908C24.435 134.017 21.1313 138.941 17.0173 142.681C13.028 146.546 7.85433 149.974 1.49633 152.966ZM74.9041 119.493C68.9201 119.493 63.9957 117.748 60.1311 114.257C56.2664 110.766 53.6484 106.091 52.2771 100.232C50.9057 94.3727 50.9057 87.89 52.2771 80.784C53.6484 73.4287 56.2664 66.8837 60.1311 61.149C63.9957 55.2897 68.6707 50.677 74.1561 47.311C79.6414 43.945 85.4384 42.262 91.5471 42.262C98.0297 42.262 103.203 44.0697 107.068 47.685C111.057 51.1757 113.675 55.8507 114.922 61.71C116.293 67.4447 116.231 73.8027 114.735 80.784C113.239 88.638 110.372 95.4947 106.133 101.354C102.019 107.213 97.1571 111.701 91.5471 114.818C86.0617 117.935 80.5141 119.493 74.9041 119.493ZM81.4491 114.818C86.5604 114.818 91.2354 112.574 95.4741 108.086C99.8374 103.473 102.767 97.1153 104.263 89.012C105.136 84.3993 105.447 79.662 105.198 74.8C104.949 69.8133 104.076 65.2007 102.58 60.962C101.084 56.7233 98.9647 53.295 96.2221 50.677C93.4794 48.059 90.1134 46.75 86.1241 46.75C80.8881 46.75 76.0884 49.0563 71.7251 53.669C67.3617 58.2817 64.3697 64.6397 62.7491 72.743C61.7517 77.605 61.4401 82.467 61.8141 87.329C62.1881 92.191 63.1231 96.7413 64.6191 100.98C66.2397 105.094 68.4214 108.46 71.1641 111.078C74.0314 113.571 77.4597 114.818 81.4491 114.818ZM107.898 169.422C105.654 169.422 103.784 168.799 102.288 167.552C100.792 166.43 100.169 164.435 100.418 161.568C101.291 158.327 103.784 156.706 107.898 156.706C110.516 156.706 113.072 156.644 115.565 156.519C118.183 156.394 120.676 155.958 123.045 155.21C125.538 154.587 127.907 153.527 130.151 152.031C132.894 150.161 136.073 146.92 139.688 142.307C143.303 137.819 147.106 132.583 151.095 126.599C155.084 120.74 158.887 114.693 162.502 108.46C166.117 102.227 169.172 96.3673 171.665 90.882C174.283 85.3967 176.028 80.9087 176.901 77.418C177.774 73.8027 178.085 70.499 177.836 67.507C177.587 64.515 177.088 61.897 176.34 59.653C175.592 57.2843 174.906 55.2273 174.283 53.482C173.66 51.612 173.348 50.116 173.348 48.994C173.348 47.124 173.971 45.628 175.218 44.506C176.465 43.384 178.085 42.823 180.08 42.823C182.698 42.823 184.506 43.758 185.503 45.628C186.625 47.498 187.186 49.9913 187.186 53.108C187.186 57.596 186.189 63.019 184.194 69.377C182.199 75.6103 179.457 82.4047 175.966 89.76C172.6 97.1153 168.673 104.533 164.185 112.013C159.822 119.368 155.147 126.474 150.16 133.331C145.298 140.312 140.311 146.483 135.2 151.844C130.089 157.205 125.164 161.443 120.427 164.56C115.814 167.801 111.638 169.422 107.898 169.422ZM145.298 138.006C146.046 110.455 144.488 89.1367 140.623 74.052C136.883 58.8427 131.398 51.238 124.167 51.238C122.546 51.238 120.863 51.7367 119.118 52.734C117.497 53.7313 116.064 55.539 114.817 58.157C114.568 58.6557 114.069 58.8427 113.321 58.718C112.698 58.4687 112.448 58.0947 112.573 57.596C114.942 52.8587 117.56 49.2433 120.427 46.75C123.294 44.2567 126.473 43.01 129.964 43.01C134.327 43.01 138.192 45.1293 141.558 49.368C144.924 53.6067 147.667 59.466 149.786 66.946C151.905 74.3013 153.401 82.841 154.274 92.565C155.147 102.164 155.271 112.449 154.648 123.42L145.298 138.006ZM213.807 119.119C207.2 119.119 201.964 117.374 198.099 113.883C194.359 110.392 191.866 105.842 190.619 100.232C189.497 94.622 189.559 88.638 190.806 82.28C191.554 77.6673 193.175 72.9923 195.668 68.255C198.286 63.393 201.527 59.0297 205.392 55.165C209.257 51.3003 213.558 48.1837 218.295 45.815C223.032 43.4463 228.081 42.262 233.442 42.262C238.055 42.262 241.421 43.197 243.54 45.067C245.784 46.8123 246.657 49.2433 246.158 52.36C245.535 55.352 243.789 58.2193 240.922 60.962C238.055 63.7047 234.377 66.198 229.889 68.442C225.401 70.5613 220.352 72.4313 214.742 74.052C209.257 75.6727 203.522 76.7947 197.538 77.418L197.912 74.987C207.511 73.6157 215.552 71.434 222.035 68.442C228.642 65.3253 232.507 61.2737 233.629 56.287C234.502 52.921 233.941 50.6147 231.946 49.368C229.951 47.9967 227.707 47.311 225.214 47.311C220.975 47.311 217.298 48.62 214.181 51.238C211.064 53.856 208.509 57.3467 206.514 61.71C204.519 66.0733 203.086 70.873 202.213 76.109C200.842 83.0903 200.655 89.3237 201.652 94.809C202.774 100.294 204.956 104.658 208.197 107.899C211.438 111.14 215.677 112.761 220.913 112.761C223.905 112.761 227.022 112.325 230.263 111.452C233.504 110.579 236.683 108.959 239.8 106.59C240.174 106.341 240.548 106.465 240.922 106.964C241.421 107.463 241.483 107.899 241.109 108.273C236.372 112.138 231.759 114.943 227.271 116.688C222.783 118.309 218.295 119.119 213.807 119.119Z" fill="#221E1F"/>
</svg>
