<svg width="329" height="103" viewBox="0 0 329 103" fill="none" xmlns="http://www.w3.org/2000/svg">
<path d="M35.332 102.964C28.3008 102.964 22.2144 101.843 17.0728 99.6021C11.9312 97.3169 7.88818 94.1528 4.94385 90.1099C2.04346 86.0229 0.395508 81.2988 0 75.9375H12.2607C12.6123 79.6289 13.8647 82.6831 16.0181 85.1001C18.2153 87.5171 21.0059 89.3188 24.3896 90.5054C27.7734 91.6919 31.4209 92.2852 35.332 92.2852C39.8584 92.2852 43.9233 91.5381 47.5269 90.0439C51.1743 88.5498 54.0527 86.4624 56.1621 83.7817C58.2715 81.1011 59.3262 77.959 59.3262 74.3555C59.3262 71.1035 58.4033 68.4668 56.5576 66.4453C54.7119 64.4238 52.2949 62.7759 49.3066 61.5015C46.3623 60.2271 43.1543 59.1064 39.6826 58.1396L27.6855 54.7119C19.9951 52.5146 13.9087 49.3726 9.42627 45.2856C4.98779 41.1548 2.76855 35.7715 2.76855 29.1357C2.76855 23.6426 4.24072 18.8525 7.18506 14.7656C10.1733 10.6348 14.1943 7.42676 19.248 5.1416C24.3457 2.85645 30.0146 1.71387 36.2549 1.71387C42.583 1.71387 48.208 2.85645 53.1299 5.1416C58.0518 7.38281 61.9629 10.459 64.8633 14.3701C67.7637 18.2373 69.3018 22.6318 69.4775 27.5537H57.876C57.3047 22.7197 54.9756 18.9624 50.8887 16.2817C46.8457 13.6011 41.8359 12.2607 35.8594 12.2607C31.5527 12.2607 27.7734 12.9639 24.5215 14.3701C21.2695 15.7764 18.7427 17.71 16.9409 20.1709C15.1392 22.6318 14.2383 25.4443 14.2383 28.6084C14.2383 32.0801 15.3149 34.8926 17.4683 37.0459C19.6216 39.1553 22.1704 40.8032 25.1147 41.9897C28.103 43.1763 30.8057 44.1211 33.2227 44.8242L43.1104 47.5928C45.6592 48.2959 48.4937 49.2407 51.6138 50.4272C54.7778 51.6138 57.8101 53.2178 60.7104 55.2393C63.6548 57.2607 66.0718 59.8535 67.9614 63.0176C69.8511 66.1377 70.7959 70.0049 70.7959 74.6191C70.7959 79.8926 69.4116 84.6826 66.6431 88.9893C63.8745 93.252 59.8535 96.6577 54.5801 99.2065C49.3066 101.711 42.8906 102.964 35.332 102.964ZM107.684 27.5537V37.1777H69.583V27.5537H107.684ZM80.6572 10.0195H91.8633V80.1562C91.8633 83.9795 92.6543 86.792 94.2363 88.5938C95.8184 90.3516 98.3232 91.2305 101.751 91.2305C102.498 91.2305 103.267 91.1865 104.058 91.0986C104.893 91.0107 105.794 90.8789 106.761 90.7031L109.134 100.854C108.079 101.25 106.783 101.558 105.245 101.777C103.75 102.041 102.234 102.173 100.696 102.173C94.7637 102.173 89.9297 100.415 86.1943 96.8994C82.5029 93.3838 80.6572 88.8135 80.6572 83.1885V10.0195ZM158.15 71.1914V27.5537H169.356V101.25H158.15V88.7256H157.359C155.602 92.4609 152.899 95.647 149.251 98.2837C145.648 100.92 141.056 102.217 135.475 102.173C130.86 102.173 126.773 101.184 123.214 99.2065C119.654 97.1851 116.842 94.1089 114.776 89.978C112.755 85.8472 111.744 80.6396 111.744 74.3555V27.5537H122.95V73.6963C122.95 79.0137 124.466 83.2764 127.499 86.4844C130.575 89.6924 134.464 91.2744 139.166 91.2305C141.979 91.2305 144.835 90.5273 147.735 89.1211C150.68 87.6709 153.141 85.4736 155.118 82.5293C157.14 79.541 158.15 75.7617 158.15 71.1914ZM204.794 102.832C198.642 102.832 193.214 101.272 188.512 98.1519C183.81 95.0317 180.141 90.6152 177.504 84.9023C174.867 79.1455 173.549 72.3779 173.549 64.5996C173.549 56.8652 174.867 50.1636 177.504 44.4946C180.185 38.7817 183.876 34.3872 188.578 31.311C193.28 28.1909 198.729 26.6309 204.926 26.6309C209.76 26.6309 213.561 27.4219 216.33 29.0039C219.142 30.5859 221.295 32.3877 222.79 34.4092C224.284 36.3867 225.448 38.0127 226.283 39.2871H227.206V3.03223H238.412V101.25H227.602V89.9121H226.283C225.448 91.2305 224.262 92.9224 222.724 94.9878C221.186 97.0093 218.988 98.833 216.132 100.459C213.319 102.041 209.54 102.832 204.794 102.832ZM206.244 92.6807C210.814 92.6807 214.66 91.4941 217.78 89.1211C220.9 86.7041 223.273 83.3862 224.899 79.1675C226.525 74.9048 227.338 70.0049 227.338 64.4678C227.338 58.9307 226.547 54.0967 224.965 49.9658C223.383 45.791 221.01 42.561 217.846 40.2759C214.726 37.9468 210.858 36.7822 206.244 36.7822C201.498 36.7822 197.543 38.0127 194.379 40.4736C191.215 42.9346 188.842 46.2524 187.26 50.4272C185.678 54.6021 184.887 59.2822 184.887 64.4678C184.887 69.6973 185.678 74.4434 187.26 78.7061C188.886 82.9688 191.281 86.3745 194.445 88.9233C197.609 91.4282 201.542 92.6807 206.244 92.6807ZM246.164 101.25V27.5537H257.37V101.25H246.164ZM251.833 15.293C249.636 15.293 247.746 14.5459 246.164 13.0518C244.582 11.5576 243.791 9.75586 243.791 7.64648C243.791 5.53711 244.582 3.73535 246.164 2.24121C247.746 0.74707 249.636 0 251.833 0C254.03 0 255.92 0.74707 257.502 2.24121C259.084 3.73535 259.875 5.53711 259.875 7.64648C259.875 9.75586 259.084 11.5576 257.502 13.0518C255.92 14.5459 254.03 15.293 251.833 15.293ZM294.917 102.832C288.281 102.832 282.458 101.25 277.449 98.0859C272.439 94.9219 268.528 90.4834 265.715 84.7705C262.947 79.0576 261.562 72.4219 261.562 64.8633C261.562 57.1729 262.947 50.4712 265.715 44.7583C268.528 39.0015 272.439 34.541 277.449 31.377C282.458 28.2129 288.281 26.6309 294.917 26.6309C301.597 26.6309 307.441 28.2129 312.451 31.377C317.461 34.541 321.372 39.0015 324.185 44.7583C326.997 50.4712 328.403 57.1729 328.403 64.8633C328.403 72.4219 326.997 79.0576 324.185 84.7705C321.372 90.4834 317.461 94.9219 312.451 98.0859C307.441 101.25 301.597 102.832 294.917 102.832ZM294.917 92.6807C300.015 92.6807 304.189 91.3843 307.441 88.7915C310.693 86.1987 313.11 82.793 314.692 78.5742C316.274 74.3115 317.065 69.7412 317.065 64.8633C317.065 59.8975 316.274 55.2832 314.692 51.0205C313.11 46.7578 310.693 43.3301 307.441 40.7373C304.189 38.1006 300.015 36.7822 294.917 36.7822C289.907 36.7822 285.776 38.1006 282.524 40.7373C279.272 43.3301 276.855 46.7578 275.273 51.0205C273.691 55.2832 272.9 59.8975 272.9 64.8633C272.9 69.7412 273.691 74.3115 275.273 78.5742C276.855 82.793 279.272 86.1987 282.524 88.7915C285.776 91.3843 289.907 92.6807 294.917 92.6807Z" fill="#221E1F"/>
</svg>
