<svg
    width="143"
    height="116"
    viewBox="0 0 143 116"
    fill="none"
    xmlns="http://www.w3.org/2000/svg"
>
    <path
    d="M61.0561 53.0771H70.1099V62.131H61.0561V53.0771Z"
    fill="#221E1F"
    />
    <path
    d="M52.0561 53.0775H61.1099V62.1313H52.0561V53.0775Z"
    fill="#221E1F"
    />
    <path
    d="M43.0559 53.0788H52.1098V62.1327H43.0559V53.0788Z"
    fill="#221E1F"
    />
    <path
    d="M34.0546 53.0791H43.1084V62.1329H34.0546V53.0791Z"
    fill="#221E1F"
    />
    <path
    d="M25.5267 53.0788H34.5805V62.1326H25.5267V53.0788Z"
    fill="#221E1F"
    />
    <path
    d="M16.5265 53.0786H25.5803V62.1325H16.5265V53.0786Z"
    fill="#221E1F"
    />
    <path
    d="M8.52652 53.0785H17.5803V62.1323H8.52652V53.0785Z"
    fill="#221E1F"
    />
    <path d="M0 52.9983H9.05382V62.0522H0V52.9983Z" fill="#221E1F" />
    <path
    d="M70.056 53.0775H79.1098V62.1313H70.056V53.0775Z"
    fill="#221E1F"
    />
    <path
    d="M106.054 53.0785H115.108V62.1323H106.054V53.0785Z"
    fill="#221E1F"
    />
    <path
    d="M115.054 53.0786H124.108V62.1324H115.054V53.0786Z"
    fill="#221E1F"
    />
    <path
    d="M124.054 53.0785H133.108V62.1323H124.054V53.0785Z"
    fill="#221E1F"
    />
    <path
    d="M79.0549 53.0785H88.1087V62.1323H79.0549V53.0785Z"
    fill="#221E1F"
    />
    <path
    d="M88.0548 53.0786H97.1087V62.1324H88.0548V53.0786Z"
    fill="#221E1F"
    />
    <path
    d="M97.0545 53.0788H106.108V62.1326H97.0545V53.0788Z"
    fill="#221E1F"
    />
    <path
    d="M133.054 52.9787H142.108V62.0325H133.054V52.9787Z"
    fill="#221E1F"
    />
    <path
    d="M124.054 61.9787H133.108V71.0326H124.054V61.9787Z"
    fill="#221E1F"
    />
    <path
    d="M115.054 70.9787H124.108V80.0326H115.054V70.9787Z"
    fill="#221E1F"
    />
    <path
    d="M106.054 79.9785H115.108V89.0323H106.054V79.9785Z"
    fill="#221E1F"
    />
    <path
    d="M96.9548 88.9785H106.009V98.0323H96.9548V88.9785Z"
    fill="#221E1F"
    />
    <path
    d="M88.0541 97.4672H97.1079V106.521H88.0541V97.4672Z"
    fill="#221E1F"
    />
    <path
    d="M79.0003 105.998H88.0542V115.052H79.0003V105.998Z"
    fill="#221E1F"
    />
    <path
    d="M97.109 8.97805H88.0552V18.0319H97.109V8.97805Z"
    fill="#221E1F"
    />
    <path d="M88.0544 0H79.0006V9.05382H88.0544V0Z" fill="#221E1F" />
    <path
    d="M106.109 17.978H97.0552V27.0319H106.109V17.978Z"
    fill="#221E1F"
    />
    <path
    d="M115.109 26.978H106.055V36.0318H115.109V26.978Z"
    fill="#221E1F"
    />
    <path
    d="M124.208 35.9777H115.154V45.0315H124.208V35.9777Z"
    fill="#221E1F"
    />
    <path
    d="M133.109 44.466H124.055V53.5198H133.109V44.466Z"
    fill="#221E1F"
    />
</svg> 